<?xml version="1.0" standalone="no"?><!DOCTYPE svg PUBLIC "-//W3C//DTD SVG 1.1//EN" "http://www.w3.org/Graphics/SVG/1.1/DTD/svg11.dtd"><svg t="1624526158223" class="icon" viewBox="0 0 1024 1024" version="1.1" xmlns="http://www.w3.org/2000/svg" p-id="19056" width="18" height="18" xmlns:xlink="http://www.w3.org/1999/xlink"><defs><style type="text/css"></style></defs><path d="M514.778 44.392c-256.898 0-465.136 208.237-465.136 465.136S257.88 974.693 514.778 974.693s465.165-208.26799999 465.165-465.165S771.675 44.392 514.778 44.392z m0 876.112c-226.979 0-410.976-183.999-410.976-410.976S287.8 98.552 514.778 98.552 925.754 282.55 925.754 509.528 741.755 920.504 514.778 920.504z" p-id="19057" fill="#909399"></path><path d="M723.28537171 469.959528l-187.34092713 204.86068722a29.48155403 29.48155403 0 0 1-22.1453476 10.02056122 29.48155403 29.48155403 0 0 1-22.1453475-10.02056122l-187.34015464-204.86068731c-9.14611819-9.65981476-11.97260854-23.73819348-7.24582673-36.17351527s16.13548288-21.11795437 29.39117431-22.29984281l374.52735899 0c13.3074474 1.13090511 24.76558683 9.76255418 29.49314108 22.24808696 4.77853774 12.48630523 1.95204718 26.51370037-7.19329826 36.22527113z" p-id="19058" fill="#909399"></path></svg>