<?xml version="1.0" standalone="no"?><!DOCTYPE svg PUBLIC "-//W3C//DTD SVG 1.1//EN" "http://www.w3.org/Graphics/SVG/1.1/DTD/svg11.dtd"><svg t="1624499339336" class="icon" viewBox="0 0 1024 1024" version="1.1" xmlns="http://www.w3.org/2000/svg" p-id="2414" xmlns:xlink="http://www.w3.org/1999/xlink" width="32" height="32"><defs><style type="text/css"></style></defs><path d="M274.4832 417.3824h-1.536c-0.6656 7.68-2.2016 15.2064-4.608 22.528l-30.464 92.928h71.0144l-30.2592-92.2624a102.7072 102.7072 0 0 1-4.096-23.1936z m476.4672-1.8944h-25.088v86.016h24.576c33.28 0 49.9712-14.5408 49.9712-43.52 0-28.3648-16.4864-42.496-49.4592-42.496z m79.1552 105.7792c-19.968 16.4352-45.0048 24.32-75.008 23.6544h-29.2352v92.8256h-56.7296v-266.24h91.5968c66.2528 0 99.328 28.0576 99.328 84.1728 0 27.2896-9.984 49.152-29.952 65.5872z m-573.4912 374.784h512v-192h-512v192z m256 95.9488a32 32 0 1 1 0-64 32 32 0 0 1 0 64z m-287.0784-415.3344l-19.6096 60.9792H144.384l97.4336-266.24h66.7136l95.5392 266.24H342.2208l-19.968-60.928h-96.768z m410.624-120.9856c0 27.2896-10.0352 49.152-30.0032 65.5872-19.968 16.4352-45.056 24.32-75.008 23.6544h-29.2352v92.8256H445.184v-266.24h91.648c66.2016 0 99.328 28.0576 99.328 84.1728z m132.4544-375.6544v223.9488h-512V79.9744l512 0.0512z m64 223.9488V64A64 64 0 0 0 768.6144 0h-512a64 64 0 0 0-64 64v239.9744H73.216v400.0256h119.3984v256A64 64 0 0 0 256.6144 1024h512a64 64 0 0 0 64-64v-256h118.272V303.9744h-118.272z m-330.752 111.5136v86.016h24.576c33.3824 0 50.0224-14.5408 50.0224-43.52 0-28.3136-16.4864-42.496-49.4592-42.496h-25.088z" p-id="2415"></path></svg>
