<?xml version="1.0" standalone="no"?><!DOCTYPE svg PUBLIC "-//W3C//DTD SVG 1.1//EN" "http://www.w3.org/Graphics/SVG/1.1/DTD/svg11.dtd"><svg t="1626852062495" class="icon" viewBox="0 0 1024 1024" version="1.1" xmlns="http://www.w3.org/2000/svg" p-id="2515" xmlns:xlink="http://www.w3.org/1999/xlink" width="16" height="16"><defs><style type="text/css">@font-face { font-family: feedback-iconfont; src: url("//at.alicdn.com/t/font_1031158_1uhr8ri0pk5.eot?#iefix") format("embedded-opentype"), url("//at.alicdn.com/t/font_1031158_1uhr8ri0pk5.woff2") format("woff2"), url("//at.alicdn.com/t/font_1031158_1uhr8ri0pk5.woff") format("woff"), url("//at.alicdn.com/t/font_1031158_1uhr8ri0pk5.ttf") format("truetype"), url("//at.alicdn.com/t/font_1031158_1uhr8ri0pk5.svg#iconfont") format("svg"); }
</style></defs><path d="M571.733333 824.917333V785.066667h366.933334v102.4H704.1536c-50.901333 27.221333-109.056 42.666667-170.820267 42.666666a361.045333 361.045333 0 0 1-214.613333-70.289066c-18.184533 6.826667-37.888 10.555733-58.453333 10.555733C168.362667 870.4 93.866667 795.904 93.866667 704c0-58.922667 30.6176-110.685867 76.817066-140.253867 1.399467-139.025067 81.024-259.328 196.957867-318.976C375.466667 160.145067 446.660267 93.866667 533.333333 93.866667c86.673067 0 157.866667 66.269867 165.691734 150.912 108.603733 55.876267 185.344 164.9664 195.754666 292.821333H938.666667v102.4H571.733333V537.6h220.168534c-9.045333-79.249067-53.700267-147.694933-117.563734-188.928C644.898133 395.52 592.759467 426.666667 533.333333 426.666667c-59.4176 0-111.5648-31.146667-141.0048-77.994667-64.0256 41.344-108.740267 110.0288-117.640533 189.5424C359.850667 545.536 426.666667 616.96 426.666667 704c0 32.290133-9.198933 62.429867-25.1136 87.953067A259.063467 259.063467 0 0 0 533.333333 827.733333c13.047467 0 25.864533-0.955733 38.4-2.816zM533.333333 324.266667a64 64 0 1 0 0-128 64 64 0 0 0 0 128z m-273.066666 443.733333a64 64 0 1 0 0-128 64 64 0 0 0 0 128zM571.733333 665.6h366.933334v102.4H571.733333V665.6z" p-id="2516"></path></svg>
