<?xml version="1.0" standalone="no"?><!DOCTYPE svg PUBLIC "-//W3C//DTD SVG 1.1//EN" "http://www.w3.org/Graphics/SVG/1.1/DTD/svg11.dtd"><svg t="1625652356414" class="icon" viewBox="0 0 1049 1024" version="1.1" xmlns="http://www.w3.org/2000/svg" p-id="3019" xmlns:xlink="http://www.w3.org/1999/xlink" width="16.390625" height="16"><defs><style type="text/css"></style></defs><path d="M125.39962 621.79102m57.15149 0l709.489867 0q57.15149 0 57.151489 57.151489l0 287.906001q0 57.15149-57.151489 57.15149l-709.489867 0q-57.15149 0-57.15149-57.15149l0-287.906001q0-57.15149 57.15149-57.151489Z"  p-id="3020"></path><path d="M881.677372 597.714596h-10.489991c-41.934684 0-83.882007-20.967342-115.33934-47.17968-62.914665 57.66967-173.00901 57.66967-241.156031 0-62.914665 57.66967-173.021648 57.66967-235.923675 0-62.914665 57.66967-152.041668 62.914665-220.201329 20.967343C-25.315001 513.832589 0.897337 408.983239 16.619684 340.823579c0-10.477352 5.244995-20.967342 5.244995-26.212338L100.514329 104.899904c20.967342-47.17968 52.424675-104.899904 120.584336-104.899904h608.154032c89.127003 0 115.33934 89.127003 131.061687 120.584335l57.66967 193.976352c5.244995 10.48999 5.244995 20.967342 10.48999 31.457333 20.967342 68.15966 41.947323 141.551677-20.967342 204.466342a189.464392 189.464392 0 0 1-125.82933 47.17968z"  p-id="3021"></path><path d="M651.554788 859.572561h-228.504851c-28.563106 0-47.60939-14.673348-47.60939-36.651774s19.046284-36.651774 47.60939-36.651774h228.504851c28.550468 0 47.596751 14.673348 47.596751 36.651774s-19.046284 36.651774-47.596751 36.651774z" fill="" p-id="3022"></path><path d="M573.966774 722.482289v200.826442c0 25.100146-14.660709 41.833576-36.651773 41.833576s-36.651774-16.73343-36.651774-41.833576v-200.826442c0-25.100146 14.673348-41.833576 36.651774-41.833576s36.651774 25.100146 36.651773 41.833576z" fill="" p-id="3023"></path></svg>
