<?xml version="1.0" standalone="no"?><!DOCTYPE svg PUBLIC "-//W3C//DTD SVG 1.1//EN" "http://www.w3.org/Graphics/SVG/1.1/DTD/svg11.dtd"><svg t="1625536441863" class="icon" viewBox="0 0 1024 1024" version="1.1" xmlns="http://www.w3.org/2000/svg" p-id="6079" xmlns:xlink="http://www.w3.org/1999/xlink" width="16" height="16"><defs><style type="text/css"></style></defs><path d="M791.738182 0H289.605818C130.885818 0 99.095273 37.515636 98.955636 190.836364c4.933818-0.186182 4.933818 0.744727 4.933819 0.744727h-4.189091C58.181818 191.581091 46.545455 226.210909 46.545455 268.846545c0 42.728727 11.589818 77.358545 53.154909 77.358546l-0.279273-1.256727v107.752727l0.279273-6.656C58.181818 446.045091 46.545455 480.674909 46.545455 523.357091c0 42.728727 11.589818 77.358545 53.154909 77.358545l-0.279273-7.912727v118.597818l0.279273-10.845091C58.181818 700.509091 46.545455 735.138909 46.545455 777.774545c0 42.728727 2.746182 86.900364 44.311272 86.900364l7.819637-0.093091C99.793455 999.144727 129.768727 1024 289.652364 1024h502.039272C931.421091 1024 977.454545 990.487273 977.454545 856.110545V190.650182C977.454545 28.113455 935.703273 0 791.738182 0z m-78.754909 571.298909c27.322182 0 41.565091 14.894545 42.821818 43.101091 1.256727 28.206545-13.032727 45.707636-47.057455 45.568-19.456-0.046545-112.128-2.466909-112.128-2.466909v97.047273c0 28.16-26.205091 33.047273-53.713454 33.047272-27.461818 0-52.084364-4.887273-52.084364-33.047272v-97.047273h-116.363636c-27.229091 0-42.309818-14.894545-42.309818-43.101091 0-18.757818-0.325818-6.330182-0.232728-7.726545 2.094545-26.251636 16.616727-35.374545 42.542546-35.374546h116.363636v-64.698182h-116.363636c-20.014545 0-39.749818-4.887273-39.749818-51.479272 0-28.206545 16.802909-45.521455 44.311272-45.521455h88.669091l-60.509091-57.018182-28.253091-29.044363a51.572364 51.572364 0 0 1-2.466909-68.421819c0.930909-1.163636 1.396364-2.653091 2.466909-3.770181a48.872727 48.872727 0 0 1 70.330182 0l3.723637 3.816727 90.530909 92.904727L637.719273 251.345455a48.872727 48.872727 0 0 1 70.376727 0 52.037818 52.037818 0 0 1 0 72.192L622.778182 409.6h88.669091c27.461818 0 44.311273 17.314909 44.311272 45.521455s-15.36 51.479273-42.821818 51.479272h-116.363636v64.698182h116.363636z" p-id="6080"></path></svg>