<?xml version="1.0" standalone="no"?><!DOCTYPE svg PUBLIC "-//W3C//DTD SVG 1.1//EN" "http://www.w3.org/Graphics/SVG/1.1/DTD/svg11.dtd"><svg t="1625109874417" class="icon" viewBox="0 0 1024 1024" version="1.1" xmlns="http://www.w3.org/2000/svg" p-id="4499" xmlns:xlink="http://www.w3.org/1999/xlink" width="16" height="16"><defs><style type="text/css"></style></defs><path d="M957.44 952.32h-20.48V115.2c0-28.16-20.48-51.2-46.08-51.2h-48.64V25.6c0-12.8-10.24-25.6-20.48-25.6h-640c-12.8 0-20.48 10.24-20.48 25.6v40.96H112.64c-25.6 0-46.08 23.04-46.08 51.2v834.56h-20.48c-25.6 0-46.08 15.36-46.08 35.84 0 20.48 20.48 35.84 46.08 35.84h911.36c25.6 0 46.08-15.36 46.08-35.84 0-20.48-20.48-35.84-46.08-35.84zM430.08 53.76c0-5.12 2.56-7.68 7.68-7.68h28.16c5.12 0 7.68 2.56 7.68 7.68v38.4c0 5.12 2.56 7.68 7.68 7.68h43.52c5.12 0 7.68-2.56 7.68-7.68V53.76c0-5.12 2.56-7.68 7.68-7.68h28.16c5.12 0 7.68 2.56 7.68 7.68v138.24c0 5.12-2.56 7.68-7.68 7.68H537.6c-5.12 0-7.68-2.56-7.68-7.68V145.92c0-5.12-2.56-7.68-7.68-7.68h-43.52c-5.12 0-7.68 2.56-7.68 7.68v43.52c0 5.12-2.56 7.68-7.68 7.68H435.2c-5.12 0-7.68-2.56-7.68-7.68l2.56-135.68z m-79.36 675.84h-153.6v-110.08h156.16v110.08z m0-181.76h-153.6v-110.08h156.16v110.08z m0-184.32h-153.6V256h156.16v107.52z m227.84 483.84h-156.16v-227.84h156.16v227.84z m0-299.52h-156.16v-110.08h156.16v110.08z m0-184.32h-156.16V256h156.16v107.52z m227.84 366.08h-156.16v-110.08h156.16v110.08z m0-181.76h-156.16v-110.08h156.16v110.08z m0-184.32h-156.16V256h156.16v107.52z" p-id="4500"></path></svg>