<?xml version="1.0" standalone="no"?><!DOCTYPE svg PUBLIC "-//W3C//DTD SVG 1.1//EN" "http://www.w3.org/Graphics/SVG/1.1/DTD/svg11.dtd"><svg t="1625536390602" class="icon" viewBox="0 0 1024 1024" version="1.1" xmlns="http://www.w3.org/2000/svg" p-id="3895" xmlns:xlink="http://www.w3.org/1999/xlink" width="16" height="16"><defs><style type="text/css"></style></defs><path d="M534.9 283.9c28.6-0.4 55.8-12.2 75.7-32.7 19.9-20.5 30.8-48.1 30.4-76.7 0.2-32.5-14-63.4-38.6-84.5 2.2 7 3.4 14.3 3.5 21.7 1.5 26.9-12 52.4-35 66.3a72.659 72.659 0 0 1-75 0c-23.1-13.9-36.5-39.4-35-66.3 0-5.9 0.7-11.7 2.1-17.5-21.9 20.9-34.3 50-34.2 80.3-0.4 28.6 10.5 56.2 30.4 76.7s47.1 32.3 75.7 32.7z m-3.2-139.7c39.3-1.1 70.4-33.6 69.8-72.9 0-25.3-13.5-48.6-35.4-61.3-21.9-12.6-48.9-12.6-70.8 0s-35.4 36-35.4 61.3c-0.5 39.3 30.6 71.7 69.8 72.9h2zM31.9 798.1l170.9 68.2C189.1 837.9 133 408.6 133 408.6L31.9 798.1z m694.8 224.6l10.9-167.6-383.2 39.8 372.3 127.8zM843.1 99.1l-186.2 28.2c11.6 21.4 17.7 45.4 17.7 69.8 0 49.9-26.6 96-69.8 121-43.2 25-96.5 25-139.7 0-43.2-25-69.8-71.1-69.8-121 0-10.3 1.1-20.6 3.3-30.7l-228.8 35.1c8.4 221.6 107.5 662.3 107.5 662.3l714.2-125c-49.6-51.2-149-639.5-149-639.5l0.6-0.2zM305.2 448.2L609 403.3l9.1 33.8L313.9 483l-8.7-34.8z m65.1 256.1l-10.9-38.6 373.4-53.5 11.6 38.2-374.1 53.9z m-23.2-111l-14.7-36.1 481.9-66.3 14.7 38.2-481.9 64.2z m0 0" p-id="3896"></path></svg>