<?xml version="1.0" standalone="no"?><!DOCTYPE svg PUBLIC "-//W3C//DTD SVG 1.1//EN" "http://www.w3.org/Graphics/SVG/1.1/DTD/svg11.dtd"><svg t="1625536283043" class="icon" viewBox="0 0 1024 1024" version="1.1" xmlns="http://www.w3.org/2000/svg" p-id="2401" xmlns:xlink="http://www.w3.org/1999/xlink" width="16" height="16"><defs><style type="text/css"></style></defs><path d="M986.792 494.346L552.554 80.106c-1.867-1.782-3.956-3.157-5.984-4.65-0.662-0.488-1.269-1.052-1.943-1.509-2.476-1.67-5.072-3.021-7.718-4.28-0.941-0.451-1.837-0.985-2.796-1.383-2.423-1.001-4.902-1.708-7.417-2.378-1.307-0.355-2.585-0.79-3.909-1.055-2.163-0.423-4.337-0.59-6.523-0.777-1.752-0.155-3.481-0.372-5.239-0.375-1.758 0.003-3.487 0.22-5.239 0.375-2.189 0.186-4.36 0.353-6.523 0.777-1.324 0.265-2.602 0.7-3.912 1.055-2.511 0.67-4.99 1.377-7.417 2.378-0.955 0.399-1.852 0.932-2.796 1.383-2.646 1.259-5.239 2.609-7.718 4.28-0.674 0.457-1.281 1.021-1.94 1.509-2.028 1.493-4.12 2.869-5.987 4.65L35.259 494.346c-23.882 22.783-24.782 60.964-1.998 84.847s60.962 24.783 84.847 2l392.917-374.826L903.94 581.193c23.885 22.783 62.064 21.884 84.85-2 22.78-23.883 21.884-62.064-1.998-84.847z" p-id="2402"></path><path d="M833.766 655.255L509.732 319.223 174.843 666.607l1.155 0.004c-10.467 12.068-17.049 27.596-17.049 44.73v179.647c0 37.791 30.921 68.71 68.71 68.71h566.732c37.792 0 68.71-30.919 68.71-68.71V711.342c0.001-23.144-11.668-43.621-29.335-56.087zM511.707 838.424c-58.416 0-105.773-47.357-105.773-105.773 0-58.417 47.357-105.773 105.773-105.773 58.419 0 105.773 47.355 105.773 105.773-0.001 58.416-47.354 105.773-105.773 105.773z" p-id="2403"></path></svg>