<?xml version="1.0" encoding="UTF-8"?>
<svg width="30px" height="30px" viewBox="0 0 30 30" version="1.1" xmlns="http://www.w3.org/2000/svg" xmlns:xlink="http://www.w3.org/1999/xlink">
    <!-- Generator: Sketch 63.1 (92452) - https://sketch.com -->
    <title>视频</title>
    <desc>Created with Sketch.</desc>
    <g id="页面-1" stroke="none" stroke-width="1" fill="none" fill-rule="evenodd">
        <g id="酒店管理-平台端房型" transform="translate(-738.000000, -577.000000)" fill-rule="nonzero">
            <g id="视频" transform="translate(738.000000, 577.000000)">
                <path d="M26.5058171,2.40667701e-14 L3.31331031,2.40667701e-14 C1.48333842,2.40667701e-14 2.75048801e-14,1.48333842 2.75048801e-14,3.31331031 L2.75048801e-14,26.5058171 C2.75048801e-14,28.335789 1.48333842,29.8191274 3.31331031,29.8191274 L26.5058171,29.8191274 C28.335789,29.8191274 29.8191274,28.335789 29.8191274,26.5058171 L29.8191274,3.31331031 C29.8191274,1.48333842 28.335789,2.40667701e-14 26.5058171,2.40667701e-14 Z" id="路径" fill="#AEAFFC"></path>
                <path d="M18.0918254,18.3546081 L18.0918254,18.3619266 C18.0918254,19.0951129 17.4976716,19.6892467 16.7644852,19.6892467 L7.52447448,19.6892467 C6.79128814,19.6809302 6.20380762,19.0801432 6.21203694,18.3469568 L6.21203694,11.2745696 L6.21203694,11.2595998 C6.21203694,10.5307381 6.80326396,9.93993092 7.5321257,9.93993092 L16.7718038,9.93993092 C17.5049901,9.94392286 18.0957973,10.5413832 18.0918254,11.2745696 L18.0918254,18.3546081 Z" id="路径" fill="#FFFFFF"></path>
                <path d="M23.461964,19.1050928 C23.461964,19.9746704 22.5321734,19.7494585 21.7820213,18.9394273 L19.3895185,16.5246362 L19.3895185,16.5246361 C19.271389,16.3529465 19.2109244,16.1481363 19.2168671,15.9398169 L19.2168671,13.7422539 L19.216867,13.7422517 C19.2119148,13.5363394 19.2723603,13.3341556 19.3895198,13.164751 L21.7820226,10.6897481 C22.5617815,9.85011005 23.4616314,9.62456543 23.461964,10.4948084 L23.461964,19.1050906 L23.461964,19.1050928 Z" id="路径" fill="#FFFFFF"></path>
            </g>
        </g>
    </g>
</svg>