<?xml version="1.0" standalone="no"?><!DOCTYPE svg PUBLIC "-//W3C//DTD SVG 1.1//EN" "http://www.w3.org/Graphics/SVG/1.1/DTD/svg11.dtd"><svg t="1625110516998" class="icon" viewBox="0 0 1024 1024" version="1.1" xmlns="http://www.w3.org/2000/svg" p-id="7464" xmlns:xlink="http://www.w3.org/1999/xlink" width="16" height="16"><defs><style type="text/css"></style></defs><path d="M64.7 717.5c0 45.1 34.9 81.7 77.8 81.7h330.7v66.1H356.4c-21.5 0-38.9 18.2-38.9 40.7 0 22.5 17.4 40.7 38.9 40.7h311.2c21.5 0 38.9-18.2 38.9-40.7 0-22.4-17.4-40.7-38.9-40.7H550.9v-66.1h330.7c42.9 0 77.8-36.6 77.8-81.7v-29.6H64.7v29.6zM881.6 77.4H142.4c-42.9 0-77.8 36.7-77.8 81.7v481.6h894.7V159.1c0-45-34.8-81.7-77.7-81.7z m-49.7 232.1L654.7 486.6c-7.6 7.6-18 12-28.8 12s-21.1-4.3-28.7-12l-130-130-170.6 168.8c-7.7 7.6-18 11.8-28.8 11.8-10.8-0.1-21.1-4.4-28.7-12.1-15.8-16-15.7-41.7 0.3-57.5l199.3-197.3c15.9-15.7 41.6-15.7 57.4 0.2L626 400.4 774.4 252c10.3-10.3 25.2-14.3 39.3-10.5 14 3.8 25 14.7 28.8 28.8 3.7 13.9-0.3 28.9-10.6 39.2z" p-id="7465"></path></svg>